# xmcd
#
# Track frame offsets: 
#        150
#        16306
#        31319
#        42836
#        54732
#        66882
#        81504
#        92612
#        105163
#        115732
#        125263
#        137714
#        150728
#        161845
#        178103
#        191769
#        211376
#        224514
#        238530
#        249962
#
# Disc length: 3631 seconds
#
# Revision: 0
# Processed by: cddbd v1.5.2PL0 Copyright (c) Steve Scherf et al.
# Submitted via: ExactAudioCopy v0.99pb5
#
DISCID=140e2d14
DTITLE=Various Artist - 100 Countryr hits [CD4]
DYEAR=2009
DGENRE=Country
TTITLE0=Billy Jo Spears - Blanket on the ground
TTITLE1=george Strait - All my ex's live in Texas
TTITLE2=Crystal Gayle - Don't it make my brown eyes blue
TTITLE3=johnny Paycheck - Take this job and shove it
TTITLE4=Brenda Lee - I'm sorry
TTITLE5=lorne Greene - Ringo
TTITLE6=kitty Wells - Heartbreak U.S.A.
TTITLE7=Hank Snow - I've been everywhere
TTITLE8=Barbara Mandrell - Sleeping single in a double bed
TTITLE9=Tom T. Hall - i love
TTITLE10=loretta Lynn - I fal to pieces
TTITLE11=Conway Twitty - Happy birthday darlin'
TTITLE12=The Statler brothers - Bed of roses
TTITLE13=Travis tritt - It was almost like a song
TTITLE14=Dottie West - A lesson in leavin'
TTITLE15=Mac Davis - It's hard to be humble
TTITLE16=Tumbleweeds - Somewhere between
TTITLE17=john Conlee - Lady lay down
TTITLE18=connie Francis - I'm a fool to care
TTITLE19=Red Sovine - Teddy bear
EXTD=
EXTT0=
EXTT1=
EXTT2=
EXTT3=
EXTT4=
EXTT5=
EXTT6=
EXTT7=
EXTT8=
EXTT9=
EXTT10=
EXTT11=
EXTT12=
EXTT13=
EXTT14=
EXTT15=
EXTT16=
EXTT17=
EXTT18=
EXTT19=
PLAYORDER=
